<svg xmlns="http://www.w3.org/2000/svg" width="18.344" height="15.12" viewBox="0 0 18.344 15.12">
  <defs>
    <style>
      .cls-1 {
        fill: #ebebeb;
        fill-rule: evenodd;
      }
    </style>
  </defs>
  <path id="twitter" class="cls-1" d="M725.511,5140.52l1.847-.36a15.243,15.243,0,0,1-1.847,1.84H725.5a6.018,6.018,0,0,0,.009,1.11c-3.529,15.21-16.518,8.48-16.518,8.48,4.726,0.13,5.147-1.84,5.147-1.84-2.768-.42-3.3-2.22-3.3-2.22a1.154,1.154,0,0,0,1.467-.36,3.338,3.338,0,0,1-2.568-3.69,3.5,3.5,0,0,0,1.8.69c-0.338-.39-3.126-3.75-1.434-5.49a9.134,9.134,0,0,0,7.428,4.03l0.361-.09a3.813,3.813,0,0,1-.086-0.8,3.868,3.868,0,0,1,3.852-3.88c2.564,0,3.118,1.48,3.118,1.48l1.834-1.11S726.411,5140.16,725.511,5140.52Z" transform="translate(-709 -5137.94)"/>
</svg>
