<svg xmlns="http://www.w3.org/2000/svg" width="18.406" height="15.94" viewBox="0 0 18.406 15.94">
  <defs>
    <style>
      .cls-1 {
        fill: #ebebeb;
        fill-rule: evenodd;
      }
    </style>
  </defs>
  <path id="vimeo" class="cls-1" d="M768.211,5140.81c-0.009.46,0.567,0.11,1.1,0.37s1.594,0.57.734,2.95c0,0-1.2,3.6-2.2,3.32,0,0-1.549.07-1.834-3.32s-0.863-6.81-2.568-6.64-4.178,1.84-5.857,4.06c0,0,.463,1.16,1.089,1.11s0.586-.96,1.1-0.74,1.309,0.19,1.834,3.32a16.245,16.245,0,0,0,2.2,6.27,2.537,2.537,0,0,0,2.568,1.49c0.765,0,3.22-1.78,5.5-4.81s4.044-6.69,4.044-7.38,0.646-3.24-1.843-3.69S768.244,5139.19,768.211,5140.81Z" transform="translate(-757.594 -5137.06)"/>
</svg>
